<svg xmlns="http://www.w3.org/2000/svg" x="0px" y="0px" width="100" height="100" viewBox="0 0 100 100">
  <path d="M52.113,97.305c-9.983,0-18.105-8.024-18.105-17.888v-4.795c0-3.894-2.749-7.436-6.228-11.919 c-4.806-6.193-10.786-13.9-10.786-25.546c0-18.589,15.354-33.151,34.956-33.151h0.101c19.595,0,34.944,14.562,34.944,33.151 c0,11.644-5.973,19.351-10.771,25.543c-3.476,4.485-6.221,8.027-6.221,11.923v4.795C70.001,89.28,61.977,97.305,52.113,97.305z" opacity=".35"></path>
  <path fill="#f2f2f2" d="M50.113,95.305c-9.983,0-18.105-8.024-18.105-17.888v-4.795c0-3.894-2.749-7.436-6.228-11.919 c-4.806-6.193-10.786-13.9-10.786-25.546c0-18.589,15.354-33.151,34.956-33.151h0.101c19.595,0,34.944,14.562,34.944,33.151 c0,11.644-5.973,19.351-10.771,25.543c-3.476,4.485-6.221,8.027-6.221,11.923v4.795C68.001,87.28,59.977,95.305,50.113,95.305z"></path>
  <g>
    <path fill="#ffc571" d="M38.682,72.622v4.795c0,6.289,5.118,11.388,11.431,11.388l0,0c6.313,0,11.286-5.098,11.286-11.388v-4.795c0-13.186,16.761-19.887,16.761-37.466c0-15.381-12.585-26.651-28.11-26.651H49.95c-15.525,0-28.11,11.27-28.11,26.651C21.839,52.735,38.682,59.436,38.682,72.622z"></path>
    <path fill="none" stroke="#fff" stroke-miterlimit="10" stroke-width="3" d="M45.509,67.228V37.917c0-2.973-2.41-5.384-5.384-5.384c-2.973,0-5.384,2.41-5.384,5.384s2.41,5.384,5.384,5.384h19.753c2.973,0,5.384-2.41,5.384-5.384s-2.41-5.384-5.384-5.384s-5.384,2.41-5.384,5.384v29.311"></path>
    <polygon fill="#d9eeff" points="60.787,82.961 54.793,88.205 46.402,88.205 40.409,84.272 39.21,67.228 60.787,67.228"></polygon>
    <rect width="23.325" height="3.982" x="38.66" y="72.01" fill="#40396e" opacity=".35"></rect>
    <rect width="21.577" height="4.011" x="39.21" y="79" fill="#40396e" opacity=".35"></rect>
    <path fill="#3f3a6b" d="M50.793,93h-1.59c-2.209,0-4-1.791-4-4v-0.795h9.59V89C54.793,91.209,53.002,93,50.793,93z"></path>
    <path fill="none" stroke="#40396e" stroke-linecap="round" stroke-linejoin="round" stroke-miterlimit="10" stroke-width="3" d="M38.508,72.622v4.795c0,6.289,5.292,11.388,11.605,11.388l0,0c6.313,0,11.388-5.098,11.388-11.388v-4.795c0-13.186,16.993-19.887,16.993-37.466c0-15.381-12.919-26.651-28.444-26.651H49.95c-15.525,0-28.455,11.27-28.455,26.651C21.494,52.735,38.508,59.436,38.508,72.622z"></path>
    <path fill="none" stroke="#fff" stroke-linecap="round" stroke-miterlimit="10" stroke-width="3" d="M29.665,32.678c0.852-6.104,4.823-11.197,10.457-13.953" opacity=".35"></path>
  </g>
</svg>
